<svg xmlns="http://www.w3.org/2000/svg" xmlns:xlink="http://www.w3.org/1999/xlink" aria-hidden="true" role="img" class="iconify iconify--logos" width="31.88" height="32" preserveAspectRatio="xMidYMid meet" viewBox="0 0 256 257"><defs><linearGradient id="IconifyId1813088fe1fbc01fb466" x1="-.828%" x2="57.636%" y1="7.652%" y2="78.411%"><stop offset="0%" stop-color="#41D1FF"></stop><stop offset="100%" stop-color="#BD34FE"></stop></linearGradient><linearGradient id="IconifyId1813088fe1fbc01fb467" x1="43.376%" x2="50.316%" y1="2.242%" y2="89.03%"><stop offset="0%" stop-color="#FFBD4F"></stop><stop offset="100%" stop-color="#FF980E"></stop></linearGradient></defs><path fill="url(#IconifyId1813088fe1fbc01fb466)" d="M255.153 37.938L134.895 252.976c-2.349 4.376-8.454 4.452-10.906.102L2.706 37.982c-2.581-4.633 1.31-10.28 6.528-9.396l113.65 20.294a6.54 6.54 0 0 0 2.322-.004l117.894-20.96c5.22-.872 9.103 4.788 6.553 9.422Z"></path><path fill="url(#IconifyId1813088fe1fbc01fb467)" d="M185.432.063L96.44 17.501a3.268 3.268 0 0 0-2.634 3.014l-5.474 92.456a3.269 3.269 0 0 0 3.997 3.378l24.777-5.718c2.318-.535 4.413 1.507 3.936 3.838l-7.361 36.047c-.495 2.426 1.782 4.46 4.118 3.736l15.317-4.627c2.34-.704 4.613 1.315 4.119 3.736l-5.876 28.406c-.483 2.326 1.745 4.351 4.078 3.661l9.334-2.78c2.34-.698 4.612 1.326 4.128 3.654l-8.456 40.952c-.58 2.808 2.475 4.99 4.99 3.572l1.688-.954a621.826 621.826 0 0 0 68.242-54.966c2.276-2.187 1.263-6.003-1.865-6.752l-16.37-3.918c-2.34-.559-3.453-3.256-2.253-5.32l35.654-60.352c1.201-2.033.091-4.671-2.253-5.232l-26.766-6.068c-2.27-.514-3.408-2.956-2.315-5.043l24.075-46.375c1.092-2.105-.047-4.68-2.316-5.23l-7.59-1.782c-.493-.112-1.006-.1-1.493.038Z"></path></svg>
